<?xml version="1.0" encoding="UTF-8" standalone="no"?>
<!-- Generator: Adobe Illustrator 19.2.1, SVG Export Plug-In . SVG Version: 6.00 Build 0)  -->

<svg
   version="1.2"
   id="Layer_1"
   x="0px"
   y="0px"
   viewBox="0 0 50.3 50.3"
   xml:space="preserve"
   sodipodi:docname="icon.svg"
   inkscape:version="1.3.2 (091e20e, 2023-11-25, custom)"
   xmlns:inkscape="http://www.inkscape.org/namespaces/inkscape"
   xmlns:sodipodi="http://sodipodi.sourceforge.net/DTD/sodipodi-0.dtd"
   xmlns="http://www.w3.org/2000/svg"
   xmlns:svg="http://www.w3.org/2000/svg"
   xmlns:rdf="http://www.w3.org/1999/02/22-rdf-syntax-ns#"
   xmlns:cc="http://creativecommons.org/ns#"
   xmlns:dc="http://purl.org/dc/elements/1.1/"><metadata
   id="metadata19"><rdf:RDF><cc:Work
       rdf:about=""><dc:format>image/svg+xml</dc:format><dc:type
         rdf:resource="http://purl.org/dc/dcmitype/StillImage" /></cc:Work></rdf:RDF></metadata><defs
   id="defs17" /><sodipodi:namedview
   pagecolor="#ffffff"
   bordercolor="#666666"
   borderopacity="1"
   objecttolerance="10"
   gridtolerance="10"
   guidetolerance="10"
   inkscape:pageopacity="0"
   inkscape:pageshadow="2"
   inkscape:window-width="1680"
   inkscape:window-height="987"
   id="namedview15"
   showgrid="false"
   inkscape:zoom="4.0000002"
   inkscape:cx="112.99999"
   inkscape:cy="15.124999"
   inkscape:window-x="1672"
   inkscape:window-y="-8"
   inkscape:window-maximized="1"
   inkscape:current-layer="Layer_1"
   inkscape:showpageshadow="2"
   inkscape:pagecheckerboard="0"
   inkscape:deskcolor="#d1d1d1" />






<path
   style="fill:none;stroke:#000000;stroke-width:1px;stroke-linecap:butt;stroke-linejoin:miter;stroke-opacity:1"
   d="m 25.249999,38.999998 c 0,0 -7.970111,0.150173 -10.4375,-0.3125 -1.884834,-0.353435 -3.756465,-0.688888 -5.0624994,-1.9375 -1.7736708,-1.695688 -2.7693285,-4.301942 -2.9374999,-6.749999 -0.1957335,-2.849276 0.793038,-5.831753 2.3124999,-8.25 2.2303124,-3.549576 5.7753484,-6.272295 9.4374994,-8.3125 2.32022,-1.292607 4.969024,-2.319232 7.625,-2.312499 2.965357,0.0075 5.978313,1.064711 8.499999,2.624999 3.771727,2.333749 7.244095,5.638086 9.1875,9.625 1.263846,2.592792 1.951798,5.764759 1.25,8.5625 -0.579895,2.311769 -2.153514,4.616289 -4.25,5.749999 -3.438986,1.85969 -15.624999,1.3125 -15.624999,1.3125 z"
   id="path1"
   sodipodi:nodetypes="csaaaaaaaasc" /></svg>
