<?xml version="1.0" encoding="UTF-8" standalone="no"?>
<svg
   width="11.444in"
   height="11.444in"
   version="1.1"
   viewBox="0 0 824 824"
   id="svg7"
   sodipodi:docname="icon.svg"
   xml:space="preserve"
   inkscape:version="1.3.2 (091e20e, 2023-11-25, custom)"
   xmlns:inkscape="http://www.inkscape.org/namespaces/inkscape"
   xmlns:sodipodi="http://sodipodi.sourceforge.net/DTD/sodipodi-0.dtd"
   xmlns="http://www.w3.org/2000/svg"
   xmlns:svg="http://www.w3.org/2000/svg"><defs
     id="defs7" /><sodipodi:namedview
     id="namedview7"
     pagecolor="#ffffff"
     bordercolor="#666666"
     borderopacity="1.0"
     inkscape:showpageshadow="2"
     inkscape:pageopacity="0.0"
     inkscape:pagecheckerboard="0"
     inkscape:deskcolor="#d1d1d1"
     inkscape:document-units="in"
     inkscape:zoom="0.71999154"
     inkscape:cx="116.66804"
     inkscape:cy="639.59085"
     inkscape:window-width="1625"
     inkscape:window-height="987"
     inkscape:window-x="-8"
     inkscape:window-y="-8"
     inkscape:window-maximized="1"
     inkscape:current-layer="svg7" /><path
     style="fill:none;stroke:#000000;stroke-width:7.20027947;stroke-linecap:butt;stroke-linejoin:miter;stroke-opacity:1;stroke-dasharray:none"
     d="m 179.73206,107.63396 c 0,0 112.91872,-25.423317 205.96648,-24.955269 56.11791,0.282284 123.65615,3.62078 167.79829,13.69042 24.88953,5.677759 69.15167,31.279619 69.15167,31.279619 0,0 -97.53178,-10.95911 -155.63978,-8.31842 -56.2954,2.55832 -165.43142,24.77653 -165.43142,24.77653 0,0 -40.61558,-30.81617 -64.65801,-37.0831 -18.30793,-4.77217 -56.75573,0.61022 -56.75573,0.61022"
     id="path7"
     sodipodi:nodetypes="csscscac" /><path
     style="fill:none;stroke:#000000;stroke-width:7.20027947;stroke-linecap:butt;stroke-linejoin:miter;stroke-opacity:1;stroke-dasharray:none"
     d="m 181.20528,106.80799 -3.68304,20.62499 120.80352,38.30356 2.20982,-22.83482"
     id="path8" /><path
     style="fill:none;stroke:#000000;stroke-width:7.20027947;stroke-linecap:butt;stroke-linejoin:miter;stroke-opacity:1;stroke-dasharray:none"
     d="m 299.79897,164.26332 327.05342,-17.67857 -4.41963,-19.88838"
     id="path9" /><path
     style="fill:none;stroke:#000000;stroke-width:7.20027947;stroke-linecap:butt;stroke-linejoin:miter;stroke-opacity:1;stroke-dasharray:none"
     d="m 178.25885,128.90619 75.8705,311.58468 c 0,0 16.99583,21.55093 27.99105,29.46427 16.49404,11.87088 55.24552,25.78124 55.24552,25.78124 0,0 68.92172,1.30032 103.12495,-2.20982 33.53475,-3.44154 99.44192,-18.41517 99.44192,-18.41517 l 86.9196,-328.52664 -54.5089,25.04464 -44.93301,176.04903"
     id="path10"
     sodipodi:nodetypes="ccacacccc" /><path
     style="fill:none;stroke:#000000;stroke-width:7.20027947;stroke-linecap:butt;stroke-linejoin:miter;stroke-opacity:1;stroke-dasharray:none"
     d="m 564.97742,349.88823 -236.45078,21.3616 24.30802,-11.0491 176.78564,-13.25892 z"
     id="path11" /><path
     style="fill:none;stroke:#000000;stroke-width:7.20027947;stroke-linecap:butt;stroke-linejoin:miter;stroke-opacity:1;stroke-dasharray:none"
     d="m 574.55331,171.62939 -240.87042,13.25892 -32.4107,-21.3616"
     id="path12" /><path
     style="fill:none;stroke:#000000;stroke-width:7.20027947;stroke-linecap:butt;stroke-linejoin:miter;stroke-opacity:1;stroke-dasharray:none"
     d="m 334.41949,183.4151 18.41517,176.78563"
     id="path13" /><path
     style="fill:none;stroke:#000000;stroke-width:7.20027947;stroke-linecap:butt;stroke-linejoin:miter;stroke-opacity:1;stroke-dasharray:none"
     d="m 353.57127,369.04001 11.78571,91.33924 136.27225,-14.73213 25.04464,-90.60264"
     id="path14" /><path
     style="fill:none;stroke:#000000;stroke-width:7.20027947;stroke-linecap:butt;stroke-linejoin:miter;stroke-opacity:1;stroke-dasharray:none"
     d="m 500.15603,445.64712 37.56695,18.41517 -195.20081,22.0982 23.57141,-26.51784"
     id="path15" /><path
     style="fill:none;stroke:#000000;stroke-width:7.20027947;stroke-linecap:butt;stroke-linejoin:miter;stroke-opacity:1;stroke-dasharray:none"
     d="M 343.25877,484.68728 301.27219,162.79011"
     id="path16" /><path
     style="fill:none;stroke:#000000;stroke-width:7.20027947;stroke-linecap:butt;stroke-linejoin:miter;stroke-opacity:1;stroke-dasharray:none"
     d="m 294.64273,179.73206 -75.8705,-25.78123 44.1964,175.31241 55.24552,26.51785 z"
     id="path17" /><path
     style="fill:none;stroke:#000000;stroke-width:7.20027947;stroke-linecap:butt;stroke-linejoin:miter;stroke-opacity:1;stroke-dasharray:none"
     d="m 318.95075,371.24983 -50.08926,-25.78124 19.88838,78.81693 22.83481,-5.15625 -13.25892,-57.45533"
     id="path18" /><path
     style="fill:none;stroke:#000000;stroke-width:7.20027947;stroke-linecap:butt;stroke-linejoin:miter;stroke-opacity:1;stroke-dasharray:none"
     d="m 312.32129,417.65606 2.20982,13.99553 13.25892,8.10267 0.73661,12.52232 -46.40623,-27.25445 -22.09821,-86.183 58.92855,33.88392"
     id="path19" /><path
     style="fill:none;stroke:#000000;stroke-width:7.20027947;stroke-linecap:butt;stroke-linejoin:miter;stroke-opacity:1;stroke-dasharray:none"
     d="m 317.47753,355.04448 -59.66515,-29.46427 -27.99106,2.20982 88.39283,44.19641"
     id="path20" /><path
     style="fill:none;stroke:#000000;stroke-width:7.20027947;stroke-linecap:butt;stroke-linejoin:miter;stroke-opacity:1;stroke-dasharray:none"
     d="m 260.75881,326.31681 -40.51338,-171.62938 74.3973,24.30802"
     id="path21" /><path
     style="fill:none;stroke:#000000;stroke-width:7.20027947;stroke-linecap:butt;stroke-linejoin:miter;stroke-opacity:1;stroke-dasharray:none"
     d="m 216.5624,154.68743 41.98659,171.62938"
     id="path22" /><path
     style="fill:none;stroke:#000000;stroke-width:7.20027947;stroke-linecap:butt;stroke-linejoin:miter;stroke-opacity:1;stroke-dasharray:none"
     d="m 223.19186,155.42404 41.98659,164.26331 22.83481,-0.7366 1.47322,6.62946 -22.83482,0.7366 1.47322,4.41965"
     id="path23" /><path
     style="fill:none;stroke:#000000;stroke-width:7.20027947;stroke-linecap:butt;stroke-linejoin:miter;stroke-opacity:1;stroke-dasharray:none"
     d="m 528.14709,346.94181 -26.51786,-13.25892 2.20983,-13.25893 26.51784,11.78571 z"
     id="path24"
     sodipodi:nodetypes="ccccc" /><path
     style="fill:none;stroke:#000000;stroke-width:7.20027947;stroke-linecap:butt;stroke-linejoin:miter;stroke-opacity:1;stroke-dasharray:none"
     d="M 543.61583,173.1026 496.47299,349.15163"
     id="path25" /><path
     style="fill:none;stroke:#000000;stroke-width:7.20027947;stroke-linecap:butt;stroke-linejoin:miter;stroke-opacity:1;stroke-dasharray:none"
     d="m 494.99978,357.2543 -22.83482,87.65621 -106.80798,8.83929"
     id="path26" /><path
     style="fill:none;stroke:#000000;stroke-width:7.20027947;stroke-linecap:butt;stroke-linejoin:miter;stroke-opacity:1;stroke-dasharray:none"
     d="M 293.16951,342.52217 251.18292,164.99992"
     id="path27" /><path
     style="fill:none;stroke:#000000;stroke-width:7.20027947;stroke-linecap:butt;stroke-linejoin:miter;stroke-opacity:1;stroke-dasharray:none"
     d="m 502.36585,439.01766 -24.30803,-15.46874 -1.47321,8.83928 24.30802,13.25892"
     id="path28" /><path
     style="fill:none;stroke:#000000;stroke-width:7.20027947;stroke-linecap:butt;stroke-linejoin:miter;stroke-opacity:1;stroke-dasharray:none"
     d="m 446.38372,492.78995 c 0,0 -2.30862,79.31464 2.20982,118.59371 2.95537,25.69119 4.37365,52.87523 16.20536,75.87049 6.99744,13.59971 30.93748,33.88391 30.93748,33.88391"
     id="path29"
     sodipodi:nodetypes="caac" /><path
     style="fill:none;stroke:#000000;stroke-width:7.20028;stroke-linecap:butt;stroke-linejoin:miter;stroke-dasharray:none;stroke-opacity:1"
     d="m 472.16496,697.56665 c 0,0 45.13174,21.71876 42.7232,34.62052 -7.9232,42.44195 -104.89964,44.25013 -122.27673,42.72318 -32.82134,-2.88405 -119.40318,-4.50357 -118.59369,-46.40621 0.35833,-18.54874 50.05224,-32.71582 50.05224,-32.71582"
     id="path30"
     sodipodi:nodetypes="csssc" /><path
     style="fill:none;stroke:#000000;stroke-width:7.20028;stroke-linecap:butt;stroke-linejoin:miter;stroke-dasharray:none;stroke-opacity:1"
     d="m 343.25877,494.99978 c 0,0 1.76579,76.39833 -4.76177,159.94838 -2.84011,36.35218 -26.1757,58.08723 -26.1757,58.08723"
     id="path31"
     sodipodi:nodetypes="csc" /><path
     style="fill:none;stroke:#000000;stroke-width:7.20028;stroke-linecap:butt;stroke-linejoin:miter;stroke-dasharray:none;stroke-opacity:1"
     d="m 317.72439,348.97599 18.75096,140.6321"
     id="path1"
     sodipodi:nodetypes="cc" /><path
     style="fill:none;stroke:#000000;stroke-width:7.20028;stroke-linecap:butt;stroke-linejoin:miter;stroke-dasharray:none;stroke-opacity:1"
     d="M 286.47282,425.02149 C 254.17952,440.64728 256.26296,441.689 256.26296,441.689"
     id="path2"
     sodipodi:nodetypes="cc" /></svg>
