<?xml version="1.0" encoding="UTF-8" standalone="no"?>
<!-- Generator: Adobe Illustrator 19.2.1, SVG Export Plug-In . SVG Version: 6.00 Build 0)  -->

<svg
   version="1.2"
   id="Layer_1"
   x="0px"
   y="0px"
   viewBox="0 0 50.3 50.3"
   xml:space="preserve"
   sodipodi:docname="icon.svg"
   inkscape:version="1.3.2 (091e20e, 2023-11-25, custom)"
   xmlns:inkscape="http://www.inkscape.org/namespaces/inkscape"
   xmlns:sodipodi="http://sodipodi.sourceforge.net/DTD/sodipodi-0.dtd"
   xmlns="http://www.w3.org/2000/svg"
   xmlns:svg="http://www.w3.org/2000/svg"
   xmlns:rdf="http://www.w3.org/1999/02/22-rdf-syntax-ns#"
   xmlns:cc="http://creativecommons.org/ns#"
   xmlns:dc="http://purl.org/dc/elements/1.1/"><metadata
   id="metadata19"><rdf:RDF><cc:Work
       rdf:about=""><dc:format>image/svg+xml</dc:format><dc:type
         rdf:resource="http://purl.org/dc/dcmitype/StillImage" /></cc:Work></rdf:RDF></metadata><defs
   id="defs17" /><sodipodi:namedview
   pagecolor="#ffffff"
   bordercolor="#666666"
   borderopacity="1"
   objecttolerance="10"
   gridtolerance="10"
   guidetolerance="10"
   inkscape:pageopacity="0"
   inkscape:pageshadow="2"
   inkscape:window-width="1680"
   inkscape:window-height="987"
   id="namedview15"
   showgrid="false"
   inkscape:zoom="16.000001"
   inkscape:cx="41.999998"
   inkscape:cy="28.156249"
   inkscape:window-x="1672"
   inkscape:window-y="-8"
   inkscape:window-maximized="1"
   inkscape:current-layer="Layer_1"
   inkscape:showpageshadow="2"
   inkscape:pagecheckerboard="0"
   inkscape:deskcolor="#d1d1d1" />






<path
   style="fill:none;stroke:#000000;stroke-width:1px;stroke-linecap:butt;stroke-linejoin:miter;stroke-opacity:1"
   d="m 17.854445,13.788582 c 0.02142,-1.020388 7.022956,-1.699139 10.606602,-1.767767 4.238069,-0.08116 10.457313,1.157965 10.518213,2.209708 0.06902,1.192038 -7.608608,1.903025 -10.677985,1.975794 -3.307572,0.07842 -10.477891,-0.937742 -10.44683,-2.417735 z"
   id="path1"
   sodipodi:nodetypes="sssss" /><path
   style="fill:none;stroke:#000000;stroke-width:1px;stroke-linecap:butt;stroke-linejoin:miter;stroke-opacity:1"
   d="m 17.843749,13.812499 c 0,0 -0.02392,0.417751 0.03125,15.21875 0.0082,2.190511 6.215863,2.848792 9.6875,2.875 1.945773,0.01469 10.907077,-0.05379 10.968749,-2.34375 0.404858,-15.033019 0.4375,-15.4375 0.4375,-15.4375"
   id="path2"
   sodipodi:nodetypes="csssc" /><path
   style="fill:none;stroke:#000000;stroke-width:1px;stroke-linecap:butt;stroke-linejoin:miter;stroke-opacity:1"
   d="m 17.937499,19.218749 c -0.08976,-0.01496 1.225427,0.853021 3.125,1.15625 3.621017,0.578024 5.220049,0.665681 7.84375,0.65625 2.070991,-0.0074 4.205845,-0.255393 6.187499,-0.5625 1.668066,-0.258509 3.53125,-0.90625 3.53125,-0.90625"
   id="path3"
   sodipodi:nodetypes="csasc" /><path
   style="fill:none;stroke:#000000;stroke-width:1px;stroke-linecap:butt;stroke-linejoin:miter;stroke-opacity:1"
   d="m 17.968749,24.843749 c -0.08976,-0.01496 1.785013,1.249962 3.28125,1.4375 2.318808,0.290639 5.037661,0.470024 7.5625,0.4375 2.121809,-0.02733 4.12563,-0.127 6.343749,-0.53125 1.707582,-0.311202 3.5,-1.09375 3.5,-1.09375"
   id="path4"
   sodipodi:nodetypes="csasc" /><path
   style="fill:none;stroke:#000000;stroke-width:1px;stroke-linecap:butt;stroke-linejoin:miter;stroke-opacity:1"
   d="m 34.687498,31.499999 c 0,0 -0.08024,0.02654 0,6.562499 0.01613,1.313888 -2.274754,1.426205 -3.562499,1.6875 -2.431798,0.493434 -5.025901,0.271714 -7.4375,-0.3125 -2.989534,-0.72422 -8.375,-3.875 -8.375,-3.875 l -0.1875,-19.374999 2.5625,-0.4375"
   id="path5"
   sodipodi:nodetypes="csaaccc" /><path
   style="fill:none;stroke:#000000;stroke-width:1px;stroke-linecap:butt;stroke-linejoin:miter;stroke-opacity:1"
   d="m 15.062499,16.124999 2.8125,1.3125"
   id="path6" /><path
   style="fill:none;stroke:#000000;stroke-width:0.1;stroke-linecap:butt;stroke-linejoin:miter;stroke-opacity:1;stroke-dasharray:none"
   d="m 27.499999,32.124999 -0.0625,7.687499"
   id="path7" /><path
   style="fill:none;stroke:#000000;stroke-width:0.1;stroke-linecap:butt;stroke-linejoin:miter;stroke-opacity:1;stroke-dasharray:none"
   d="m 23.874999,31.499999 -0.0625,7.812499"
   id="path8" /></svg>
