<?xml version="1.0" encoding="UTF-8" standalone="no"?>
<!-- Generator: Adobe Illustrator 19.2.1, SVG Export Plug-In . SVG Version: 6.00 Build 0)  -->

<svg
   version="1.2"
   id="Layer_1"
   x="0px"
   y="0px"
   viewBox="0 0 50.3 50.3"
   xml:space="preserve"
   sodipodi:docname="icon.svg"
   inkscape:version="1.3.2 (091e20e, 2023-11-25, custom)"
   xmlns:inkscape="http://www.inkscape.org/namespaces/inkscape"
   xmlns:sodipodi="http://sodipodi.sourceforge.net/DTD/sodipodi-0.dtd"
   xmlns="http://www.w3.org/2000/svg"
   xmlns:svg="http://www.w3.org/2000/svg"
   xmlns:rdf="http://www.w3.org/1999/02/22-rdf-syntax-ns#"
   xmlns:cc="http://creativecommons.org/ns#"
   xmlns:dc="http://purl.org/dc/elements/1.1/"><metadata
   id="metadata19"><rdf:RDF><cc:Work
       rdf:about=""><dc:format>image/svg+xml</dc:format><dc:type
         rdf:resource="http://purl.org/dc/dcmitype/StillImage" /></cc:Work></rdf:RDF></metadata><defs
   id="defs17" /><sodipodi:namedview
   pagecolor="#ffffff"
   bordercolor="#666666"
   borderopacity="1"
   objecttolerance="10"
   gridtolerance="10"
   guidetolerance="10"
   inkscape:pageopacity="0"
   inkscape:pageshadow="2"
   inkscape:window-width="1625"
   inkscape:window-height="987"
   id="namedview15"
   showgrid="false"
   inkscape:zoom="11.313709"
   inkscape:cx="12.197591"
   inkscape:cy="28.947182"
   inkscape:window-x="-8"
   inkscape:window-y="-8"
   inkscape:window-maximized="1"
   inkscape:current-layer="Layer_1"
   inkscape:showpageshadow="2"
   inkscape:pagecheckerboard="0"
   inkscape:deskcolor="#d1d1d1" />






<path
   style="fill:none;stroke:#000000;stroke-width:1px;stroke-linecap:butt;stroke-linejoin:miter;stroke-opacity:1"
   d="m 14.053746,10.960154 c -2.962576,14.035183 -2.123028,9.794798 -4.5078051,20.064154 -0.2739783,1.179809 1.1774761,2.667155 2.3864851,2.740039 13.829218,0.833683 14.849241,0.707106 14.849241,0.707106 0,0 0.889979,-0.05294 11.75565,-0.618718 1.25108,-0.06514 2.733046,-1.602543 2.474874,-2.828427 C 38.629081,19.708549 39.086378,21.644518 36.681162,11.225319 36.186082,9.0806716 32.990711,8.6331211 30.847531,8.1317275 26.743519,7.1716006 22.255608,7.3098622 18.207998,8.4852808 16.660087,8.9347915 14.386645,9.3830464 14.053746,10.960154 Z"
   id="path1"
   sodipodi:nodetypes="ssscsssaas" /><path
   style="fill:none;stroke:#000000;stroke-width:1px;stroke-linecap:butt;stroke-linejoin:miter;stroke-opacity:1"
   d="m 11.136931,33.58757 c 0,0 3.428322,1.524886 4.419417,3.005204 0.720097,1.07555 0.144431,2.68201 0.795495,3.800698 0.33599,0.577314 0.834653,1.320859 1.502602,1.325825 6.309154,0.0469 5.185481,0.120495 7.778174,0.08839 2.44682,-0.0303 1.20531,0.163727 7.336233,-0.265165 1.222466,-0.08552 1.215014,-2.136305 1.679378,-3.270369 0.187149,-0.457054 0.193585,-0.987314 0.441942,-1.414213 0.303993,-0.522532 0.772471,-0.939486 1.237437,-1.325825 0.886393,-0.7365 2.916815,-1.856156 2.916815,-1.856156"
   id="path2"
   sodipodi:nodetypes="caasasaaac" /></svg>
