<?xml version="1.0" encoding="UTF-8" standalone="no"?>
<!-- Generator: Adobe Illustrator 19.2.1, SVG Export Plug-In . SVG Version: 6.00 Build 0)  -->

<svg
   version="1.2"
   id="Layer_1"
   x="0px"
   y="0px"
   viewBox="0 0 50.3 50.3"
   xml:space="preserve"
   sodipodi:docname="icon.svg"
   inkscape:version="1.3.2 (091e20e, 2023-11-25, custom)"
   xmlns:inkscape="http://www.inkscape.org/namespaces/inkscape"
   xmlns:sodipodi="http://sodipodi.sourceforge.net/DTD/sodipodi-0.dtd"
   xmlns="http://www.w3.org/2000/svg"
   xmlns:svg="http://www.w3.org/2000/svg"
   xmlns:rdf="http://www.w3.org/1999/02/22-rdf-syntax-ns#"
   xmlns:cc="http://creativecommons.org/ns#"
   xmlns:dc="http://purl.org/dc/elements/1.1/"><metadata
   id="metadata19"><rdf:RDF><cc:Work
       rdf:about=""><dc:format>image/svg+xml</dc:format><dc:type
         rdf:resource="http://purl.org/dc/dcmitype/StillImage" /></cc:Work></rdf:RDF></metadata><defs
   id="defs17" /><sodipodi:namedview
   pagecolor="#ffffff"
   bordercolor="#666666"
   borderopacity="1"
   objecttolerance="10"
   gridtolerance="10"
   guidetolerance="10"
   inkscape:pageopacity="0"
   inkscape:pageshadow="2"
   inkscape:window-width="1680"
   inkscape:window-height="987"
   id="namedview15"
   showgrid="false"
   inkscape:zoom="8.0000004"
   inkscape:cx="65.437497"
   inkscape:cy="51.562497"
   inkscape:window-x="1672"
   inkscape:window-y="-8"
   inkscape:window-maximized="1"
   inkscape:current-layer="Layer_1"
   inkscape:showpageshadow="2"
   inkscape:pagecheckerboard="0"
   inkscape:deskcolor="#d1d1d1" />






<path
   style="fill:none;stroke:#000000;stroke-width:1.5;stroke-linecap:butt;stroke-linejoin:miter;stroke-opacity:1;stroke-dasharray:none"
   d="m 8.2499996,32.499998 c 0.1755729,-5.224169 11.9025184,-7.908941 18.6249994,-7.749999 6.335296,0.149788 17.274147,2.745906 17.187499,8.124999 -0.06676,4.144629 -11.089138,6.252582 -18.812499,6.125 -4.691572,-0.0775 -17.1638711,-1.624 -16.9999994,-6.5 z"
   id="path1"
   sodipodi:nodetypes="sasss" /><path
   style="fill:none;stroke:#000000;stroke-width:1.5;stroke-linecap:butt;stroke-linejoin:miter;stroke-dasharray:none;stroke-opacity:1"
   d="m 8.2499996,32.687498 0.125,-8.749999 c 0.032232,-2.256223 8.7261124,-6.818125 17.6874994,-6.9375 7.8546,-0.104631 17.819623,4.185366 17.874999,7.8125 l 0.125,8.187499"
   id="path2"
   sodipodi:nodetypes="csssc" /><path
   style="fill:none;stroke:#000000;stroke-width:1px;stroke-linecap:butt;stroke-linejoin:miter;stroke-opacity:1"
   d="m 9.6785236,32.482715 c 0,-3.942642 10.8078454,-6.436957 16.7937854,-6.363959 5.820927,0.07099 16.175067,2.524532 16.175067,6.584931 0,3.141121 -10.837699,4.998188 -16.617009,4.949747 C 20.313934,37.60552 9.6785236,36.154986 9.6785236,32.482715 Z"
   id="path3"
   sodipodi:nodetypes="sasas" /></svg>
