<?xml version="1.0" encoding="UTF-8" standalone="no"?>
<!-- Generator: Adobe Illustrator 19.2.1, SVG Export Plug-In . SVG Version: 6.00 Build 0)  -->

<svg
   version="1.2"
   id="Layer_1"
   x="0px"
   y="0px"
   viewBox="0 0 50.8 50.8"
   xml:space="preserve"
   sodipodi:docname="icon.svg"
   inkscape:version="1.3.2 (091e20e, 2023-11-25, custom)"
   xmlns:inkscape="http://www.inkscape.org/namespaces/inkscape"
   xmlns:sodipodi="http://sodipodi.sourceforge.net/DTD/sodipodi-0.dtd"
   xmlns="http://www.w3.org/2000/svg"
   xmlns:svg="http://www.w3.org/2000/svg"><defs
   id="defs4" /><sodipodi:namedview
   id="namedview4"
   pagecolor="#ffffff"
   bordercolor="#666666"
   borderopacity="1.0"
   inkscape:showpageshadow="2"
   inkscape:pageopacity="0.0"
   inkscape:pagecheckerboard="0"
   inkscape:deskcolor="#d1d1d1"
   inkscape:zoom="7.7854332"
   inkscape:cx="68.718077"
   inkscape:cy="39.882174"
   inkscape:window-width="1680"
   inkscape:window-height="987"
   inkscape:window-x="1672"
   inkscape:window-y="-8"
   inkscape:window-maximized="1"
   inkscape:current-layer="Layer_1" />




	
<path
   style="fill:none;stroke:#000000;stroke-width:1px;stroke-linecap:butt;stroke-linejoin:miter;stroke-opacity:1"
   d="m 18.046523,17.404298 c 0,0 0.239188,-0.97225 2.31201,-11.7527178 0,0 1.949005,-0.6954426 5.266245,-0.77067 3.615207,-0.081985 5.458913,0.899115 5.458913,0.899115 1.755448,9.9942138 2.247788,11.6242728 2.247788,11.6242728 l -7.899368,-0.128445 z"
   id="path4"
   sodipodi:nodetypes="csssccc" /><path
   style="fill:none;stroke:#000000;stroke-width:1px;stroke-linecap:butt;stroke-linejoin:miter;stroke-opacity:1"
   d="m 18.47727,16.112056 7.048892,-0.166065 7.302555,0.158274"
   id="path5"
   sodipodi:nodetypes="ccc" /><path
   style="fill:none;stroke:#000000;stroke-width:0.5;stroke-linecap:butt;stroke-linejoin:miter;stroke-dasharray:none;stroke-opacity:1"
   d="m 24.725663,17.596966 0.192668,3.660682 h -0.321113 l 0.181315,8.065434 0.245537,0.166397 0.08693,12.383589"
   id="path6"
   sodipodi:nodetypes="cccccc" /><path
   style="fill:none;stroke:#000000;stroke-width:0.5;stroke-linecap:butt;stroke-linejoin:miter;stroke-dasharray:none;stroke-opacity:1"
   d="m 26.588116,17.404298 v 3.85335 l 0.321112,0.06422 0.0039,7.985962 -0.453453,0.170296 v 12.651832"
   id="path7"
   sodipodi:nodetypes="cccccc" /><path
   style="fill:none;stroke:#000000;stroke-width:0.5;stroke-linecap:butt;stroke-linejoin:miter;stroke-dasharray:none;stroke-opacity:1"
   d="m 24.590688,21.2756 c 0,0 0.735529,0.204016 1.112599,0.204355 0.338482,3.04e-4 0.999067,-0.181649 0.999067,-0.181649"
   id="path8"
   sodipodi:nodetypes="cac" /><path
   style="fill:none;stroke:#000000;stroke-width:0.6;stroke-linecap:butt;stroke-linejoin:miter;stroke-dasharray:none;stroke-opacity:1"
   d="m 24.704219,29.179599 c 0,0 0.705096,0.333691 1.084382,0.347046 0.360044,0.01268 1.04999,-0.256222 1.04999,-0.256222"
   id="path9"
   sodipodi:nodetypes="cac" /><path
   style="fill:none;stroke:#000000;stroke-width:1px;stroke-linecap:round;stroke-linejoin:miter;stroke-opacity:1"
   d="m 26.812895,41.102401 c 0,0 2.276428,0.08171 3.435904,0.256891 3.285242,0.496363 2.986346,1.734008 2.986346,1.734008 -0.265667,0.435656 -2.722059,0.961539 -4.142351,1.156004 -2.099752,0.287496 -6.358028,0 -6.358028,0 0,0 -2.82051,0.06734 -3.885462,-0.706447 -0.255706,-0.185795 -0.535764,-0.430703 -0.449557,-0.834893 0.136669,-0.640784 2.305503,-1.255825 3.564349,-1.445006 1.235253,-0.185635 2.890013,-0.128445 2.890013,-0.128445"
   id="path10"
   sodipodi:nodetypes="cssacassc" /><path
   style="fill:none;stroke:#000000;stroke-width:1px;stroke-linecap:butt;stroke-linejoin:miter;stroke-opacity:1"
   d="m 18.55087,43.255089 c 0,0 0.98363,1.463113 1.634838,2.043547 0.446787,0.398229 0.955009,0.759984 1.521308,0.953659 1.302617,0.445497 2.733255,0.428697 4.109801,0.408709 1.480312,-0.02149 3.056757,0.04397 4.40498,-0.567652 0.882435,-0.400316 0.208034,0.13817 1.498602,-1.044479 0.606692,-0.55596 1.38507,-2.043548 1.38507,-2.043548"
   id="path11"
   sodipodi:nodetypes="caaassc" /><path
   style="fill:none;stroke:#000000;stroke-width:0.5;stroke-linecap:butt;stroke-linejoin:miter;stroke-dasharray:none;stroke-opacity:1"
   d="m 31.419218,41.312154 c 0,0 0.814923,-1.517378 1.506267,-1.971029 0.785893,-0.515692 1.804125,-0.56351 2.736991,-0.678954 1.815211,-0.224633 3.731682,0.496646 5.487146,-0.01697 0.931627,-0.272576 1.501088,-1.397057 2.457645,-1.562055 1.479126,-0.255137 2.936702,0.626835 4.389854,1.002685 0.04145,0.01074 0.123384,0.0357 0.123384,0.0357"
   id="path12"
   sodipodi:nodetypes="caaaaac" /></svg>
