<?xml version="1.0" encoding="UTF-8" standalone="no"?>
<!-- Generator: Adobe Illustrator 23.0.6, SVG Export Plug-In . SVG Version: 6.00 Build 0)  -->

<svg
   version="1.1"
   id="Layer_1"
   x="0px"
   y="0px"
   viewBox="0 0 459.09076 716.84924"
   xml:space="preserve"
   sodipodi:docname="icon.svg"
   width="459.09076"
   height="716.84924"
   inkscape:version="1.3.2 (091e20e, 2023-11-25, custom)"
   xmlns:inkscape="http://www.inkscape.org/namespaces/inkscape"
   xmlns:sodipodi="http://sodipodi.sourceforge.net/DTD/sodipodi-0.dtd"
   xmlns="http://www.w3.org/2000/svg"
   xmlns:svg="http://www.w3.org/2000/svg"><defs
   id="defs10" /><sodipodi:namedview
   id="namedview10"
   pagecolor="#ffffff"
   bordercolor="#666666"
   borderopacity="1.0"
   inkscape:showpageshadow="2"
   inkscape:pageopacity="0.0"
   inkscape:pagecheckerboard="0"
   inkscape:deskcolor="#d1d1d1"
   inkscape:zoom="0.69222954"
   inkscape:cx="375.59796"
   inkscape:cy="490.44426"
   inkscape:window-width="1680"
   inkscape:window-height="987"
   inkscape:window-x="-8"
   inkscape:window-y="-8"
   inkscape:window-maximized="1"
   inkscape:current-layer="Layer_1" />
<style
   type="text/css"
   id="style1">
	.st0{fill:#FFFFFF;stroke:#000000;stroke-width:0.5;stroke-miterlimit:10;}
	.st1{stroke:#000000;stroke-width:0.5;stroke-miterlimit:10;}
</style>

<path
   style="fill:none;stroke:#000000;stroke-width:10;stroke-linecap:butt;stroke-linejoin:miter;stroke-dasharray:none;stroke-opacity:1"
   d="m 375.70894,686.56139 c -0.0606,11.06128 -10.43312,25.53262 -21.49178,25.28445 -149.36421,-3.35195 8.17847,2.57458 -150.44248,-2.52845 -9.01385,-0.28999 -21.59113,-7.41692 -21.49178,-16.43489 4.43141,-402.23741 4.42928,-311.59513 1.26422,-656.131483 -0.11773,-12.81607 13.73999,-27.3622603 26.54867,-27.8128903 139.72547,-4.91574 2.43187,1.8032203 139.06448,-3.79267 11.90922,-0.48775 25.19543,13.3655803 25.28445,25.2844503 2.98142,399.200513 3.19846,302.862833 1.26422,656.131483 z"
   id="path26"
   sodipodi:nodetypes="sssssssss" /><path
   style="fill:none;stroke:#000000;stroke-width:10;stroke-linecap:butt;stroke-linejoin:miter;stroke-dasharray:none;stroke-opacity:1"
   d="m 351.0566,4.8293967 c 0,0 1.59064,0.86755 76.16941,10.1137803 11.68921,1.44922 24.00379,14.13788 24.02022,25.91657 0.51772,371.137693 2.39559,301.255823 2.8445,634.323643 0.0185,13.69573 -7.16422,35.30767 -20.85966,35.39823 -76.71134,0.50722 -76.48547,1.26422 -76.48547,1.26422"
   id="path27"
   sodipodi:nodetypes="cssssc" /><path
   style="fill:none;stroke:#000000;stroke-width:10;stroke-linecap:butt;stroke-linejoin:miter;stroke-dasharray:none;stroke-opacity:1"
   d="m 87.258331,495.56834 c -30.29497,-0.0636 -37.29593,0.16863 -68.8334,-0.44697 -6.98056,-0.13626 -13.4031901,9.10902 -13.4091001,16.09092 -0.0729,86.15023 0.13751,92.27708 0,177.89412 -0.0144,8.98522 8.4654001,19.97984 17.4318301,20.56063 28.05318,1.81712 33.86487,2.02719 60.34097,0.44697 8.64656,-0.51607 19.665219,-8.32292 19.666689,-16.98487 0.0136,-79.92895 0.55331,-103.65768 -0.44697,-181.02291 -0.0955,-7.38605 -7.363379,-16.52239 -14.750019,-16.53789 z"
   id="path29"
   sodipodi:nodetypes="sssssssss" /><path
   style="fill:none;stroke:#000000;stroke-width:10;stroke-linecap:butt;stroke-linejoin:miter;stroke-dasharray:none;stroke-opacity:1"
   d="m 89.940151,495.56834 c 0,0 6.94856,0.12717 51.401569,0 9.96559,-0.0285 15.70378,15.51183 15.64396,25.47729 -0.47582,79.26833 0.5206,99.66804 -0.89394,168.95472 -0.1957,9.5856 -10.97458,19.94135 -20.56063,20.11366 -42.232119,0.75914 -52.742479,-0.44697 -52.742479,-0.44697"
   id="path30"
   sodipodi:nodetypes="cssssc" /><path
   style="fill:none;stroke:#000000;stroke-width:20;stroke-linecap:butt;stroke-linejoin:miter;stroke-dasharray:none;stroke-opacity:1"
   d="m 277.09958,423.60311 c 34.62689,0.003 61.78693,33.32619 58.15424,74.58913 -2.26162,25.68929 -30.66387,53.97292 -56.89001,54.36156 -37.4246,0.55459 -59.84174,-37.15519 -59.41846,-67.00379 0.40159,-28.31937 23.13103,-61.94955 58.15423,-61.9469 z"
   id="path31"
   sodipodi:nodetypes="sssas" /></svg>
